<svg width="13" height="16" viewBox="0 0 13 16" fill="none" xmlns="http://www.w3.org/2000/svg">
<path d="M0.765187 6.14011C0.702777 6.05561 0.657621 5.95965 0.632298 5.8577C0.606975 5.75575 0.601979 5.64981 0.617598 5.54593C0.64914 5.33614 0.76273 5.14747 0.93338 5.02143C1.10403 4.89539 1.31776 4.8423 1.52755 4.87384C1.73735 4.90538 1.92602 5.01897 2.05206 5.18962C2.34765 5.5863 2.57867 6.02722 2.73656 6.49605C2.90072 6.98246 2.98396 7.49251 2.98299 8.00587C2.98354 8.51792 2.9003 9.02662 2.73656 9.51179C2.57867 9.98061 2.34765 10.4215 2.05206 10.8182C1.92602 10.9889 1.73735 11.1025 1.52755 11.134C1.31776 11.1655 1.10403 11.1124 0.93338 10.9864C0.76273 10.8604 0.64914 10.6717 0.617598 10.4619C0.586055 10.2521 0.639145 10.0384 0.765187 9.86773C0.960498 9.60781 1.11362 9.31872 1.21892 9.01112C1.33087 8.6877 1.38901 8.34811 1.39102 8.00587C1.39236 7.6656 1.3382 7.32738 1.23065 7.00454C1.12249 6.69346 0.965361 6.40164 0.765187 6.14011ZM3.50321 4.64984C4.1258 5.65823 4.4537 6.82077 4.44978 8.00587C4.45511 9.18886 4.12998 10.3498 3.51103 11.358C3.45581 11.4474 3.41874 11.5467 3.40193 11.6505C3.38512 11.7542 3.38889 11.8602 3.41305 11.9624C3.4372 12.0646 3.48126 12.1611 3.5427 12.2464C3.60414 12.3316 3.68177 12.4039 3.77114 12.4591C3.86052 12.5143 3.9599 12.5514 4.0636 12.5682C4.16731 12.585 4.27331 12.5812 4.37555 12.5571C4.4778 12.5329 4.57428 12.4888 4.6595 12.4274C4.74472 12.366 4.817 12.2883 4.87222 12.199C5.64779 10.9385 6.05433 9.4858 6.04566 8.00587C6.05485 6.52465 5.6483 5.07055 4.87222 3.80888C4.817 3.7195 4.74472 3.64187 4.6595 3.58043C4.57428 3.51899 4.4778 3.47493 4.37555 3.45078C4.27331 3.42663 4.16731 3.42285 4.0636 3.43966C3.9599 3.45647 3.86052 3.49355 3.77114 3.54876C3.68177 3.60398 3.60414 3.67626 3.5427 3.76148C3.48126 3.8467 3.4372 3.94319 3.41305 4.04543C3.38889 4.14768 3.38512 4.25368 3.40193 4.35738C3.41874 4.46109 3.45581 4.56046 3.51103 4.64984H3.50321ZM6.41725 3.14393C7.28152 4.62408 7.73647 6.30751 7.73541 8.02152C7.73596 9.73422 7.28103 11.4163 6.41725 12.8952C6.36408 12.9859 6.3293 13.0861 6.31487 13.1902C6.30045 13.2943 6.30668 13.4002 6.33319 13.5019C6.3597 13.6036 6.40599 13.6991 6.46941 13.7829C6.53282 13.8667 6.61212 13.9372 6.70278 13.9904C6.79344 14.0436 6.89369 14.0784 6.99779 14.0928C7.1019 14.1072 7.20782 14.101 7.30952 14.0745C7.41122 14.0479 7.5067 14.0017 7.59052 13.9382C7.67433 13.8748 7.74483 13.7955 7.79799 13.7049C8.80782 11.9827 9.33856 10.0218 9.3352 8.02543C9.34185 6.02174 8.81246 4.05273 7.8019 2.32252C7.69298 2.1389 7.51557 2.00608 7.30871 1.95326C7.10186 1.90045 6.88249 1.93197 6.69887 2.0409C6.51526 2.14982 6.38243 2.32723 6.32961 2.53409C6.2768 2.74094 6.30832 2.96031 6.41725 3.14393ZM9.31955 1.61846C10.4312 3.56907 11.0137 5.77637 11.0093 8.02152C11.0132 10.2654 10.4307 12.4713 9.31955 14.4207C9.26818 14.5118 9.23528 14.6122 9.22271 14.7161C9.21015 14.82 9.21817 14.9254 9.24632 15.0262C9.27447 15.127 9.3222 15.2212 9.38677 15.3036C9.45135 15.3859 9.53151 15.4547 9.62269 15.5061C9.71386 15.5575 9.81426 15.5904 9.91815 15.6029C10.022 15.6155 10.1274 15.6075 10.2282 15.5793C10.329 15.5512 10.4232 15.5035 10.5056 15.4389C10.5879 15.3743 10.6568 15.2941 10.7081 15.203C11.9565 13.0113 12.6117 10.532 12.6091 8.00978C12.6149 5.48095 11.9596 2.99452 10.7081 0.797052C10.6044 0.612917 10.4317 0.477533 10.2282 0.420683C10.0246 0.363834 9.80682 0.390176 9.62269 0.493914C9.43855 0.597653 9.30317 0.77029 9.24632 0.973847C9.18947 1.1774 9.21581 1.39521 9.31955 1.57934" fill="white"/>
</svg>
