<svg width="23" height="18" viewBox="0 0 23 18" fill="none" xmlns="http://www.w3.org/2000/svg">
<rect x="0.219048" y="0.219048" width="22.5619" height="17.0857" rx="3.28571" fill="url(#paint0_linear)" stroke="#666666" stroke-width="0.438095"/>
<path fill-rule="evenodd" clip-rule="evenodd" d="M7.61704 11.359C7.63237 13.5353 9.67949 16.1297 11.0895 16.9683C11.1167 16.9825 11.1406 17.0023 11.1597 17.0263C11.1788 17.0504 11.1926 17.0782 11.2002 17.1079C11.2078 17.1376 11.2091 17.1686 11.204 17.1989C11.1989 17.2292 11.1875 17.258 11.1705 17.2836C11.1498 17.318 11.1207 17.3466 11.0858 17.3666C11.0509 17.3865 11.0114 17.3971 10.9713 17.3974C10.9303 17.3975 10.8901 17.3862 10.8552 17.3646C9.35107 16.4779 7.293 13.8856 7.16164 11.5648H0.229891C0.172509 11.5592 0.119263 11.5324 0.0805242 11.4897C0.0417849 11.447 0.0203256 11.3914 0.0203256 11.3338C0.0203256 11.2761 0.0417849 11.2205 0.0805242 11.1778C0.119263 11.1351 0.172509 11.1084 0.229891 11.1028H7.20543C7.6423 9.57155 7.6423 7.94865 7.20543 6.41741H0.229891C0.16892 6.41741 0.110446 6.39319 0.0673334 6.35007C0.0242205 6.30696 0 6.24849 0 6.18752C0 6.12655 0.0242205 6.06807 0.0673334 6.02496C0.110446 5.98185 0.16892 5.95763 0.229891 5.95763H7.16164C7.293 3.62807 9.35983 1.04454 10.8552 0.157816C10.9089 0.12675 10.9728 0.118293 11.0327 0.134307C11.0927 0.15032 11.1438 0.189492 11.1749 0.243204C11.2059 0.296916 11.2144 0.36077 11.1984 0.420717C11.1824 0.480664 11.1432 0.531795 11.0895 0.562861C9.67949 1.39047 7.63237 3.98714 7.61704 6.16562C8.11852 7.86042 8.11852 9.66416 7.61704 11.359ZM14.7327 3.84701C13.9467 2.27719 12.7119 1.04454 11.8996 0.562865C11.8459 0.531799 11.8067 0.480668 11.7907 0.42072C11.7747 0.360773 11.7831 0.29692 11.8142 0.243207C11.8453 0.189495 11.8964 0.150324 11.9563 0.13431C12.0163 0.118297 12.0801 0.126753 12.1338 0.15782C13.1979 0.781808 14.4349 2.2137 15.1443 3.62807C15.1614 3.65516 15.1723 3.68566 15.1763 3.71743C15.1803 3.74919 15.1773 3.78145 15.1675 3.81193C15.1577 3.84241 15.1413 3.87037 15.1195 3.89383C15.0978 3.91729 15.0711 3.93569 15.0414 3.94773C15.0098 3.9648 14.9744 3.97382 14.9385 3.974C14.8958 3.97405 14.8539 3.96219 14.8176 3.93976C14.7812 3.91733 14.7518 3.88521 14.7327 3.84701ZM22.7701 11.1028H15.7814C15.3446 9.57155 15.3446 7.94865 15.7814 6.41741H22.7701C22.8311 6.41741 22.8896 6.39319 22.9327 6.35008C22.9758 6.30696 23 6.24849 23 6.18752C23 6.12655 22.9758 6.06807 22.9327 6.02496C22.8896 5.98185 22.8311 5.95763 22.7701 5.95763H15.6041C15.5543 5.9582 15.506 5.97495 15.4665 6.00535C15.427 6.03576 15.3984 6.07818 15.3852 6.12621C14.8761 7.83332 14.8761 9.65185 15.3852 11.359C15.3698 13.5353 13.3227 16.1297 11.9127 16.9683C11.8848 16.9817 11.86 17.0009 11.84 17.0246C11.8201 17.0483 11.8054 17.0759 11.7969 17.1057C11.7884 17.1355 11.7863 17.1668 11.7908 17.1974C11.7953 17.2281 11.8063 17.2575 11.8229 17.2836C11.8436 17.318 11.8728 17.3466 11.9077 17.3666C11.9426 17.3865 11.982 17.3971 12.0222 17.3974C12.0632 17.3975 12.1034 17.3862 12.1382 17.3646C13.6336 16.4888 15.7004 13.8856 15.8318 11.5648H22.7701C22.8275 11.5592 22.8807 11.5324 22.9195 11.4897C22.9582 11.447 22.9797 11.3914 22.9797 11.3338C22.9797 11.2761 22.9582 11.2205 22.9195 11.1778C22.8807 11.1351 22.8275 11.1084 22.7701 11.1028ZM11.2658 1.41167C11.3335 1.36645 11.4131 1.34231 11.4945 1.34231C11.6037 1.34231 11.7084 1.38567 11.7856 1.46286C11.8628 1.54006 11.9061 1.64475 11.9061 1.75392C11.9061 1.83533 11.882 1.91491 11.8368 1.9826C11.7915 2.05029 11.7273 2.10305 11.652 2.1342C11.5768 2.16535 11.4941 2.17351 11.4142 2.15762C11.3344 2.14174 11.261 2.10254 11.2035 2.04497C11.1459 1.98741 11.1067 1.91407 11.0908 1.83422C11.0749 1.75438 11.0831 1.67161 11.1142 1.5964C11.1454 1.52119 11.1982 1.4569 11.2658 1.41167Z" fill="#666666"/>
<defs>
<linearGradient id="paint0_linear" x1="-2.19048" y1="-3.52723e-07" x2="24.8619" y2="17.5238" gradientUnits="userSpaceOnUse">
<stop stop-color="#DDD9D6"/>
<stop offset="0.212761" stop-color="#8A868C"/>
<stop offset="0.548384" stop-color="#F2F3F3" stop-opacity="0.8"/>
<stop offset="0.914316" stop-color="#807C80"/>
<stop offset="1" stop-color="#A6A8AB"/>
</linearGradient>
</defs>
</svg>
