<svg width="65" height="29" viewBox="0 0 65 29" fill="none" xmlns="http://www.w3.org/2000/svg">
<path d="M50.4643 29C58.4724 29 65 22.5081 65 14.5C65 6.49188 58.4724 5.20679e-06 50.4643 3.8147e-06L50.4643 29Z" fill="white"/>
<path d="M50.4643 7.34665C54.3697 7.34665 57.5357 10.5493 57.5357 14.5C57.5357 18.4507 54.3697 21.6533 50.4643 21.6533L50.4643 7.34665Z" fill="#CACACA"/>
<path d="M50.4643 7.34665C46.3419 7.34665 43 10.5493 43 14.5C43 18.4507 46.3419 21.6533 50.4643 21.6533L50.4643 7.34665Z" fill="white" fill-opacity="0.51"/>
<path d="M1.59998 13.288H1.51198V17H0.487976V11.416H1.92798L3.19998 15.128H3.28798V11.416H4.31198V17H2.87198L1.59998 13.288Z" fill="white"/>
<path d="M7.19685 17.096C6.87685 17.096 6.58885 17.048 6.33285 16.952C6.07685 16.8507 5.85818 16.7067 5.67685 16.52C5.50085 16.3333 5.36485 16.1067 5.26885 15.84C5.17285 15.5733 5.12485 15.272 5.12485 14.936C5.12485 14.6 5.17285 14.2987 5.26885 14.032C5.36485 13.7653 5.50085 13.5387 5.67685 13.352C5.85818 13.1653 6.07685 13.024 6.33285 12.928C6.58885 12.8267 6.87685 12.776 7.19685 12.776C7.51685 12.776 7.80485 12.8267 8.06085 12.928C8.31685 13.024 8.53285 13.1653 8.70885 13.352C8.89019 13.5387 9.02885 13.7653 9.12485 14.032C9.22085 14.2987 9.26885 14.6 9.26885 14.936C9.26885 15.272 9.22085 15.5733 9.12485 15.84C9.02885 16.1067 8.89019 16.3333 8.70885 16.52C8.53285 16.7067 8.31685 16.8507 8.06085 16.952C7.80485 17.048 7.51685 17.096 7.19685 17.096ZM7.19685 16.216C7.46352 16.216 7.67152 16.1333 7.82085 15.968C7.97018 15.8027 8.04485 15.568 8.04485 15.264V14.608C8.04485 14.304 7.97018 14.0693 7.82085 13.904C7.67152 13.7387 7.46352 13.656 7.19685 13.656C6.93018 13.656 6.72218 13.7387 6.57285 13.904C6.42352 14.0693 6.34885 14.304 6.34885 14.608V15.264C6.34885 15.568 6.42352 15.8027 6.57285 15.968C6.72218 16.1333 6.93018 16.216 7.19685 16.216Z" fill="white"/>
<path d="M9.83373 17V12.872H10.7857V13.48H10.8417C10.9057 13.288 10.9964 13.1227 11.1137 12.984C11.2364 12.8453 11.4071 12.776 11.6257 12.776C12.0257 12.776 12.2711 13.0107 12.3617 13.48H12.4097C12.4417 13.384 12.4817 13.2933 12.5297 13.208C12.5777 13.1227 12.6364 13.048 12.7057 12.984C12.7751 12.92 12.8577 12.8693 12.9537 12.832C13.0497 12.7947 13.1617 12.776 13.2897 12.776C13.8657 12.776 14.1537 13.2 14.1537 14.048V17H13.2017V14.168C13.2017 13.976 13.1671 13.8427 13.0977 13.768C13.0337 13.688 12.9484 13.648 12.8417 13.648C12.7404 13.648 12.6524 13.6827 12.5777 13.752C12.5084 13.816 12.4737 13.9173 12.4737 14.056V17H11.5137V14.168C11.5137 13.976 11.4817 13.8427 11.4177 13.768C11.3591 13.688 11.2764 13.648 11.1697 13.648C11.0631 13.648 10.9724 13.6827 10.8977 13.752C10.8231 13.816 10.7857 13.9173 10.7857 14.056V17H9.83373Z" fill="white"/>
<path d="M17.0466 12.344C16.7799 12.344 16.5933 12.2907 16.4866 12.184C16.3853 12.072 16.3346 11.9387 16.3346 11.784V11.552C16.3346 11.392 16.3853 11.2587 16.4866 11.152C16.5933 11.0453 16.7799 10.992 17.0466 10.992C17.3133 10.992 17.4973 11.0453 17.5986 11.152C17.7053 11.2587 17.7586 11.392 17.7586 11.552V11.784C17.7586 11.9387 17.7053 12.072 17.5986 12.184C17.4973 12.2907 17.3133 12.344 17.0466 12.344ZM15.1426 16.08H16.4546V13.792H15.1426V12.872H17.6386V16.08H18.8546V17H15.1426V16.08Z" fill="white"/>
<path d="M19.8035 11.416H21.7635C22.3128 11.416 22.7315 11.5493 23.0195 11.816C23.3128 12.0827 23.4595 12.4453 23.4595 12.904C23.4595 13.224 23.3795 13.48 23.2195 13.672C23.0648 13.8587 22.8408 13.9947 22.5475 14.08V14.128C22.8941 14.2133 23.1608 14.3627 23.3475 14.576C23.5395 14.7893 23.6355 15.0853 23.6355 15.464C23.6355 15.9333 23.4861 16.3067 23.1875 16.584C22.8941 16.8613 22.4808 17 21.9475 17H19.8035V11.416ZM21.5795 16.16C21.8675 16.16 22.0781 16.112 22.2115 16.016C22.3448 15.92 22.4115 15.744 22.4115 15.488V15.256C22.4115 15 22.3448 14.824 22.2115 14.728C22.0781 14.632 21.8675 14.584 21.5795 14.584H20.9715V16.16H21.5795ZM21.4275 13.784C21.7101 13.784 21.9155 13.7387 22.0435 13.648C22.1715 13.552 22.2355 13.3813 22.2355 13.136V12.896C22.2355 12.6507 22.1715 12.4827 22.0435 12.392C21.9155 12.3013 21.7101 12.256 21.4275 12.256H20.9715V13.784H21.4275Z" fill="white"/>
<path d="M27.8804 17C27.635 17 27.4377 16.9387 27.2884 16.816C27.139 16.688 27.051 16.5067 27.0244 16.272H26.9844C26.9097 16.544 26.7604 16.7493 26.5364 16.888C26.3177 17.0267 26.0483 17.096 25.7283 17.096C25.3284 17.096 25.0057 16.9893 24.7604 16.776C24.5204 16.5573 24.4004 16.2533 24.4004 15.864C24.4004 15.432 24.5577 15.112 24.8724 14.904C25.187 14.696 25.6483 14.592 26.2563 14.592H26.9204V14.384C26.9204 14.1387 26.8617 13.9547 26.7444 13.832C26.6324 13.704 26.4403 13.64 26.1684 13.64C25.9177 13.64 25.715 13.688 25.5604 13.784C25.4057 13.88 25.2724 14.0053 25.1604 14.16L24.5124 13.584C24.651 13.3493 24.867 13.1573 25.1604 13.008C25.459 12.8533 25.8403 12.776 26.3043 12.776C26.8697 12.776 27.3097 12.9067 27.6243 13.168C27.9443 13.424 28.1044 13.8133 28.1044 14.336V16.144H28.5604V17H27.8804ZM26.1763 16.32C26.3843 16.32 26.5604 16.2693 26.7043 16.168C26.8484 16.0667 26.9204 15.92 26.9204 15.728V15.232H26.2884C25.803 15.232 25.5604 15.3947 25.5604 15.72V15.88C25.5604 16.024 25.6164 16.1333 25.7283 16.208C25.8403 16.2827 25.9897 16.32 26.1763 16.32Z" fill="white"/>
<path d="M29.3012 17V12.872H30.4852V13.624H30.5332C30.5812 13.5067 30.6399 13.3973 30.7092 13.296C30.7786 13.1947 30.8612 13.1067 30.9572 13.032C31.0586 12.952 31.1732 12.8907 31.3012 12.848C31.4346 12.8 31.5839 12.776 31.7492 12.776C31.9466 12.776 32.1279 12.8107 32.2932 12.88C32.4586 12.944 32.5999 13.0427 32.7172 13.176C32.8346 13.3093 32.9252 13.472 32.9892 13.664C33.0586 13.856 33.0932 14.0773 33.0932 14.328V17H31.9092V14.488C31.9092 13.9547 31.6772 13.688 31.2132 13.688C31.1226 13.688 31.0319 13.7013 30.9412 13.728C30.8559 13.7493 30.7786 13.7867 30.7092 13.84C30.6399 13.888 30.5839 13.9493 30.5412 14.024C30.5039 14.0987 30.4852 14.1867 30.4852 14.288V17H29.3012Z" fill="white"/>
<path d="M34.0981 11.08H35.2821V14.44H35.3381L35.8901 13.792L36.7541 12.872H38.1141L36.5141 14.504L38.2821 17H36.8741L35.6741 15.176L35.2821 15.568V17H34.0981V11.08Z" fill="white"/>
</svg>
