<svg id="Capa_1" enable-background="new 0 0 512 512" height="512" viewBox="0 0 512 512" width="512" xmlns="http://www.w3.org/2000/svg"><g><g><path d="m256 0-15.061 256 15.06 256c141.385 0 256-114.615 256-256s-114.614-256-255.999-256z" fill="#0dc46e"/><path d="m0 256c0 141.385 114.615 256 255.999 256v-512c-141.384 0-255.999 114.615-255.999 256z" fill="#04db7b"/></g><g><g><path d="m259.617 194.479c53.265 4.931 102.502 20.06 142.39 43.752l15.32-25.793c-43.693-25.953-97.272-42.492-154.944-47.831-2.424-.224-4.858-.408-7.291-.593l-10.001 16.847 10.001 13.25c1.509.123 3.021.228 4.525.368z" fill="#f7f0eb"/><path d="m102.578 177.479 7.512 29.045c46.758-12.093 96.787-16.348 145.003-12.413v-30.097c-50.777-3.867-103.338.746-152.515 13.465z" fill="#fffbf5"/></g><g><path d="m366.819 305.384 15.361-25.768c-41.724-24.875-86.53-36.128-127.088-40.27l-10.001 13.829 10.001 16.402c42.05 4.613 79.515 16.604 111.727 35.807z" fill="#f7f0eb"/><path d="m121.427 247.878 7.359 29.084c4.098-1.037 41.453-10.091 90.565-9.518 12.252.148 24.169.862 35.741 2.132v-30.23c-68.158-6.961-124.317 6.167-133.665 8.532z" fill="#fffbf5"/></g><g><path d="m332.324 371.213 16.174-25.268c-26.829-17.173-58.212-28.176-93.406-32.82l-10.001 14.107 10.001 16.121c36.429 5.579 61.977 18.094 77.232 27.86z" fill="#f7f0eb"/><path d="m142.332 318.456 6.182 29.355c42.469-8.943 77.895-8.85 106.579-4.458v-30.228c-3.892-.513-7.817-.971-11.801-1.328-31.818-2.854-66.728-.551-100.96 6.659z" fill="#fffbf5"/></g></g></g></svg>